{"title":"Once Upon a Time S05E01 Special-Dark Swan Rises A Fan Celebratio","uid":12498611,"size":1154006113,"categoryP":"video","categoryS":"tv_shows","magnet":"?xt=urn:btih:b7a17f227b5415a5d9d06c9018e750345aa44046&amp;dn=Once+Upon+a+Time+S05E01+Special-Dark+Swan+Rises+A+Fan+Celebratio&amp;tr=udp%3A%2F%2Ftracker.leechers-paradise.org%3A6969&amp;tr=udp%3A%2F%2Fzer0day.ch%3A1337&amp;tr=udp%3A%2F%2Fopen.demonii.com%3A1337&amp;tr=udp%3A%2F%2Ftracker.coppersurfer.tk%3A6969&amp;tr=udp%3A%2F%2Fexodus.desync.com%3A6969","seeders":1,"leechers":2,"uploader":"tykoon123","files":2,"time":1443326264,"description":"Airdate 2015.09.26 \r\n\r\n\r\nFile size : 1.07 GiB \r\nDuration : 41mn 20s \r\nOverall bit rate : 3 722 Kbps \r\nEncoded date : UTC 2015-09-27 02:10:31 \r\nWriting application : mkvmerge v6.7.0 ('Back to the Ground') 64bit built on Jan 8 2014 14:31:51 \r\nWriting library : libebml v1.3.0 + libmatroska v1.4.1 \r\n\r\nVideo \r\nID : 1 \r\nFormat : AVC \r\nFormat/Info : Advanced Video Codec \r\nFormat profile :    \r\nFormat settings, CABAC : Yes \r\nFormat settings, ReFrames : 8 frames \r\nCodec ID : V_MPEG4/ISO/AVC \r\nDuration : 41mn 20s \r\nBit rate : 3 264 Kbps \r\nWidth : 1 280 pixels \r\nHeight : 716 pixels \r\nDisplay aspect ratio : 16:9 \r\nFrame rate mode : Constant \r\nFrame rate : 23.976 fps \r\nColor space : YUV \r\nChroma subsampling : 4:2:0 \r\nBit depth : 8 bits \r\nScan type : Progressive \r\nBits/(Pixel*Frame) : 0.149 \r\nStream size : 965 MiB (88%) \r\nWriting library : x264 core 148 r2597 e86f3a1 \r\nDefault : No \r\nForced : No \r\n\r\nAudio \r\nID : 2 \r\nFormat : AC-3 \r\nFormat/Info : Audio Coding 3 \r\nMode extension : CM (complete main) \r\nFormat settings, Endianness : Big \r\nCodec ID : A_AC3 \r\nDuration : 41mn 20s \r\nBit rate mode : Constant \r\nBit rate : 384 Kbps \r\nChannel(s) : 6 channels \r\nChannel positions : Front: L C R, Side: L R, LFE \r\nSampling rate : 48.0 KHz \r\nBit depth : 16 bits \r\nCompression mode : Lossy \r\nDelay relative to video : -83ms \r\nStream size : 114 MiB (10%) \r\nDefault : Yes \r\nForced : No \r\n\r\nScreens: \nhttp://www.imgpuppy.com/image/Hujb \nhttp://www.imgpuppy.com/image/HRUA \nhttp://www.imgpuppy.com/image/Hppd \nhttp://www.imgpuppy.com/image/H1y7 \nhttp://www.imgpuppy.com/image/HGhJ","torrent":{"xt":"urn:btih:b7a17f227b5415a5d9d06c9018e750345aa44046","amp;dn":"Once+Upon+a+Time+S05E01+Special-Dark+Swan+Rises+A+Fan+Celebratio","amp;tr":["udp%3A%2F%2Ftracker.leechers-paradise.org%3A6969","udp%3A%2F%2Fzer0day.ch%3A1337","udp%3A%2F%2Fopen.demonii.com%3A1337","udp%3A%2F%2Ftracker.coppersurfer.tk%3A6969","udp%3A%2F%2Fexodus.desync.com%3A6969"],"infoHash":"b7a17f227b5415a5d9d06c9018e750345aa44046","infoHashBuffer":{"type":"Buffer","data":[183,161,127,34,123,84,21,165,217,208,108,144,24,231,80,52,90,164,64,70]},"announce":[],"urlList":[]}}